<svg width="78" height="35" viewBox="0 0 78 35" fill="none" xmlns="http://www.w3.org/2000/svg">
<path d="M33.38 27.4923H31.0352C30.9526 27.4923 30.8932 27.3986 30.8932 27.3092C30.8932 27.2774 32.141 23.2346 32.141 23.2346C32.1855 23.0834 32.1897 23.079 32.2066 23.079H32.2088C32.2277 23.079 32.2299 23.0834 32.2743 23.2346C32.2743 23.2346 33.522 27.2774 33.522 27.3092C33.522 27.3986 33.4584 27.4923 33.3802 27.4923M36.5427 18.2424C36.531 18.2024 36.5076 18.167 36.4754 18.1407C36.4433 18.1145 36.4039 18.0987 36.3626 18.0955H27.7518C27.7108 18.0987 27.6717 18.1143 27.6396 18.1401C27.6075 18.1659 27.5839 18.2008 27.5717 18.2402C27.5717 18.2402 22.8119 34.0321 22.8119 34.0621C22.8119 34.1407 22.8734 34.2046 22.9539 34.2046H28.6457C28.6682 34.1952 28.6881 34.1804 28.7036 34.1614C28.7191 34.1425 28.7298 34.12 28.7347 34.096L29.3976 31.9673C29.4078 31.9409 29.4255 31.9181 29.4485 31.9018C29.4715 31.8855 29.4988 31.8764 29.5269 31.8756L34.7782 31.8715C34.8352 31.8757 34.8862 31.9162 34.9074 31.9673L35.5852 34.096C35.5958 34.1452 35.6297 34.1897 35.6742 34.2067L41.2749 34.2046C41.3531 34.2046 41.419 34.145 41.419 34.0662C41.419 34.0385 36.5427 18.2424 36.5427 18.2424ZM52.7687 24.69L49.2713 24.6922C49.2713 24.6922 49.1783 24.6645 49.1783 24.558L49.1762 22.7847C49.1762 22.6782 49.2694 22.6506 49.2694 22.6506H52.4764C52.8492 22.6506 53.6033 22.8379 53.6033 23.7044C53.6033 24.5708 52.7687 24.69 52.7687 24.69ZM69.537 23.317H77.4615V18.0948H67.2725C66.3194 18.0948 64.9785 18.5888 64.2096 19.1614C63.4407 19.734 62.3285 21.039 62.3285 22.8379C62.3285 24.6368 63.4152 26.0355 63.4152 26.0355C63.9723 26.7295 65.3747 28.1751 65.3747 28.1751C65.4064 28.2092 65.4255 28.2537 65.4255 28.305C65.4255 28.4134 65.3386 28.5007 65.2306 28.5007H57.3823C56.427 28.4965 56.3613 28.1155 56.3613 28.0601C56.3613 27.9622 56.4799 27.9004 56.4799 27.9004C56.838 27.728 57.5686 27.1552 57.5686 27.1552C59.1193 25.9419 59.3059 24.2771 59.3059 23.3851C59.3059 22.4909 59.1722 20.9092 57.5815 19.5234C55.9907 18.1374 53.9762 18.0991 53.9762 18.0991H42.7767V34.1126C42.7767 34.1635 42.8233 34.204 42.8742 34.204H49.1084V29.7121C49.1084 29.6335 49.229 29.7121 49.229 29.7121L52.4764 32.9906C53.6309 34.1635 55.5394 34.204 55.5394 34.204L67.817 34.2018C69.912 34.2018 71.0771 33.0566 71.3968 32.7372C71.7146 32.4157 72.7759 31.2173 72.7759 29.231C72.7759 27.2469 71.8735 26.2314 71.4879 25.7653C71.1449 25.348 69.7764 23.8917 69.4904 23.5894C69.4731 23.5752 69.4592 23.5574 69.4497 23.5372C69.4402 23.5169 69.4352 23.4948 69.4353 23.4724C69.4353 23.402 69.4755 23.3362 69.537 23.3168M19.9667 34.2036C20.0091 34.2036 20.0388 34.1738 20.0515 34.127C20.0515 34.127 24.8748 18.2052 24.8748 18.1901C24.8748 18.1475 24.8494 18.1009 24.8091 18.0966H18.8631C18.8334 18.0966 18.8144 18.12 18.808 18.152C18.808 18.1541 17.5772 22.2925 17.5772 22.2946C17.5688 22.3287 17.5518 22.35 17.5222 22.35C17.4925 22.35 17.4671 22.3202 17.4628 22.2946L16.175 18.1498C16.1708 18.122 16.1496 18.0966 16.1199 18.0966L9.55328 18.0945C9.54374 18.0971 9.53494 18.1019 9.52758 18.1086C9.52022 18.1152 9.51452 18.1235 9.51091 18.1328L8.35641 22.2925C8.35006 22.3287 8.33099 22.35 8.29921 22.35C8.28573 22.3497 8.27279 22.3447 8.2627 22.3357C8.2526 22.3267 8.24602 22.3144 8.24412 22.301L7.01971 18.1456C7.01824 18.1329 7.01268 18.121 7.00388 18.1118C6.99509 18.1026 6.98353 18.0965 6.97098 18.0945H0.633139C0.608183 18.0948 0.584376 18.1051 0.566912 18.123C0.549448 18.1409 0.539744 18.165 0.539919 18.1901C0.539919 18.1986 0.542038 18.2157 0.542038 18.2157L5.43741 34.127C5.45012 34.1738 5.47978 34.2036 5.52215 34.2036L10.7862 34.2058C10.8178 34.2015 10.8497 34.1653 10.858 34.127C10.8602 34.127 12.6903 28.2065 12.6903 28.2065C12.7009 28.1704 12.7158 28.1492 12.7454 28.1492C12.7772 28.1492 12.7943 28.1746 12.8026 28.2044L14.5883 34.1525C14.5935 34.1675 14.6033 34.1805 14.6162 34.1897C14.6291 34.1989 14.6445 34.2037 14.6604 34.2036H19.9667ZM15.3875 0.793929C14.4322 0.793929 13.0935 1.28775 12.3246 1.86051C11.5554 2.43311 10.4436 3.73817 10.4436 5.53705C10.4436 7.33593 11.5301 8.73467 11.5301 8.73467C12.0873 9.42864 13.4896 10.8847 13.4896 10.8847C13.5213 10.9188 13.5404 10.9635 13.5404 11.0125C13.5404 11.1211 13.4535 11.2105 13.3457 11.2105H0.538452V16.9031H15.932C18.0249 16.9031 19.192 15.7577 19.5119 15.4364C19.8297 15.117 20.8888 13.9184 20.8888 11.9321C20.8888 9.94801 19.9886 8.92188 19.603 8.45574C19.2598 8.03841 17.8915 6.59086 17.6054 6.29064C17.5883 6.27588 17.5745 6.2576 17.565 6.23703C17.5555 6.21646 17.5505 6.19408 17.5503 6.1714C17.5503 6.10113 17.5906 6.03726 17.652 6.01597H25.066V16.9031H30.7663V6.04365H37.6868V0.793929H15.3875ZM65.1051 7.38932L61.6079 7.39145C61.6079 7.39145 61.5147 7.36377 61.5147 7.25731L61.5125 5.48398C61.5125 5.37752 61.6058 5.34984 61.6058 5.34984H64.8129C65.1856 5.34984 65.9397 5.53721 65.9397 6.40365C65.9397 7.27009 65.1053 7.38932 65.1053 7.38932M69.7189 11.2C68.7655 11.1957 68.6978 10.8148 68.6978 10.7594C68.6978 10.6615 68.8163 10.5997 68.8163 10.5997C69.1744 10.4273 69.9051 9.85449 69.9051 9.85449C71.4558 8.64115 71.6423 6.97642 71.6423 6.08443C71.6423 5.19015 71.5086 3.60845 69.918 2.22265C68.3271 0.836678 66.3126 0.794093 66.3126 0.794093H55.1131V16.8117C55.1131 16.8628 55.1599 16.9034 55.2107 16.9034H61.4447V12.4133C61.4447 12.3324 61.5655 12.4133 61.5655 12.4133L64.8129 15.6897C65.9672 16.8626 67.8758 16.9031 67.8758 16.9031H77.461V11.2003H69.7189V11.2ZM46.0204 10.1901H43.6753C43.5885 10.1901 43.5336 10.0964 43.5336 10.007C43.5336 9.97291 44.7811 5.93243 44.7811 5.93243C44.8256 5.78126 44.8382 5.77684 44.8468 5.77684H44.8489C44.8574 5.77684 44.8701 5.78126 44.9146 5.93243C44.9146 5.93243 46.1621 9.97307 46.1621 10.007C46.1621 10.0964 46.1051 10.1901 46.0204 10.1901ZM49.1765 0.935933C49.1653 0.896104 49.1418 0.860858 49.1095 0.835235C49.0771 0.809612 49.0376 0.794925 48.9964 0.793274L40.3857 0.793274C40.301 0.797532 40.229 0.855022 40.2057 0.933804C40.2057 0.933804 35.4501 16.73 35.4501 16.7598C35.4501 16.8386 35.5137 16.9024 35.5919 16.9024H41.2839C41.3305 16.8877 41.3642 16.8428 41.3748 16.7938L42.038 14.663C42.0486 14.6371 42.0665 14.6149 42.0894 14.5991C42.1124 14.5832 42.1394 14.5743 42.1672 14.5735H47.4162C47.4443 14.5754 47.4713 14.585 47.4945 14.6011C47.5176 14.6172 47.536 14.6393 47.5476 14.6651L48.2255 16.7938C48.236 16.843 48.2699 16.8875 48.3144 16.9046L53.9151 16.9024C53.9337 16.9028 53.9521 16.8995 53.9694 16.8926C53.9867 16.8857 54.0024 16.8754 54.0156 16.8623C54.0289 16.8492 54.0393 16.8336 54.0465 16.8163C54.0536 16.7991 54.0572 16.7806 54.057 16.7619C54.057 16.7363 49.1765 0.935933 49.1765 0.935933Z" fill="#010101"/>
</svg>
